<svg width="198" height="96" viewBox="0 0 198 96" fill="none" xmlns="http://www.w3.org/2000/svg">
<g filter="url(#filter0_d)">
<path d="M92.2169 83.5003L104.235 34.0639L187.545 19.102L92.2169 83.5003Z" fill="#FFD229"/>
</g>
<g filter="url(#filter1_d)">
<path d="M186.387 5.31018L105.941 71.0617L90.9341 80.3152L147.444 10.4716L186.387 5.31018Z" fill="#551D7D"/>
</g>
<g filter="url(#filter2_d)">
<path d="M176.551 0L74.1784 83.4581L125.021 0H176.551Z" fill="#F35A95"/>
</g>
<path d="M151.231 0L94.5884 84H1.52588e-05V0H151.231Z" fill="#0194EE"/>
<path d="M95.9213 53.3082C95.9896 53.1358 96.0921 52.975 96.2174 52.8371C96.3427 52.6992 96.4907 52.5958 96.6729 52.5154C96.8437 52.435 97.0373 52.4005 97.2423 52.4005C97.5156 52.4005 97.7433 52.458 97.9255 52.5729C98.1078 52.6877 98.2558 52.8026 98.3469 52.9175L98.1078 53.1358C98.0394 53.0439 97.9369 52.9635 97.7889 52.8716C97.6522 52.7797 97.47 52.7337 97.2423 52.7337C97.0715 52.7337 96.9234 52.7682 96.7868 52.8256C96.6501 52.8831 96.5362 52.975 96.4451 53.0784C96.354 53.1818 96.2743 53.3082 96.2288 53.446C96.1718 53.5839 96.1491 53.7333 96.1491 53.8826C96.1491 54.0435 96.1718 54.1928 96.2288 54.3307C96.2857 54.4686 96.354 54.5949 96.4451 54.6983C96.5362 54.8017 96.6615 54.8822 96.7868 54.9396C96.912 54.9971 97.0715 55.0315 97.2423 55.0315C97.4587 55.0315 97.6522 54.9856 97.8003 54.8937C97.9483 54.8017 98.0736 54.6983 98.1533 54.5835L98.3811 54.8017C98.3355 54.8707 98.2672 54.9281 98.1989 54.9971C98.1305 55.066 98.0394 55.1234 97.9483 55.1809C97.8572 55.2383 97.7433 55.2843 97.6295 55.3188C97.5042 55.3532 97.3789 55.3762 97.2423 55.3762C97.0373 55.3762 96.8437 55.3417 96.6729 55.2613C96.5021 55.1809 96.3427 55.0775 96.2174 54.9396C96.0921 54.8017 95.9896 54.6524 95.9213 54.4686C95.853 54.2962 95.8188 54.1009 95.8188 53.8941C95.8188 53.6873 95.8416 53.492 95.9213 53.3082Z" fill="white"/>
<path d="M96.2174 54.9163C96.3427 55.0542 96.4907 55.1576 96.6729 55.238C96.8437 55.3185 97.0373 55.3529 97.2423 55.3529C97.3789 55.3529 97.5042 55.3299 97.6295 55.2955C97.7547 55.261 97.8572 55.2151 97.9483 55.1576C98.0394 55.1002 98.1305 55.0427 98.1989 54.9738C98.2672 54.9048 98.3355 54.8359 98.3811 54.7785L98.1533 54.5602C98.0736 54.6751 97.9483 54.7785 97.8003 54.8704C97.6522 54.9623 97.4587 55.0082 97.2423 55.0082C97.0715 55.0082 96.9234 54.9738 96.7868 54.9163C96.6501 54.8589 96.5362 54.7785 96.4451 54.6751C96.354 54.5717 96.2743 54.4453 96.2288 54.3074C96.1718 54.1695 96.1491 54.0202 96.1491 53.8593C96.1491 53.71 96.1718 53.5606 96.2288 53.4227C96.2857 53.2849 96.354 53.1585 96.4451 53.0551C96.5362 52.9517 96.6615 52.8713 96.7868 52.8023C96.9234 52.7449 97.0715 52.7104 97.2423 52.7104C97.4587 52.7104 97.6409 52.7564 97.7889 52.8483C97.9256 52.9402 98.0394 53.0206 98.1078 53.1125L98.3469 52.8942C98.2558 52.7793 98.1191 52.6645 97.9255 52.5496C97.7433 52.4347 97.5156 52.3772 97.2423 52.3772C97.0373 52.3772 96.8437 52.4117 96.6729 52.4921C96.5021 52.5725 96.3427 52.6759 96.2174 52.8138C96.0921 52.9517 95.9896 53.101 95.9213 53.2849C95.853 53.4572 95.8188 53.6525 95.8188 53.8593C95.8188 54.0661 95.853 54.25 95.9213 54.4338C95.9896 54.6291 96.0921 54.79 96.2174 54.9163Z" fill="white"/>
<path d="M98.825 52.1938C99.0299 52.4121 99.1894 52.6648 99.3146 52.9406C99.4285 53.2278 99.4854 53.5265 99.4854 53.8482C99.4854 54.1699 99.4285 54.4801 99.3146 54.7674C99.2008 55.0546 99.0413 55.3073 98.825 55.5256C98.62 55.7439 98.3694 55.9163 98.0848 56.0427C97.8001 56.169 97.4926 56.238 97.151 56.238C96.8093 56.238 96.5019 56.169 96.2172 56.0427C95.9325 55.9163 95.6819 55.7439 95.477 55.5256C95.272 55.3073 95.1126 55.0546 94.9873 54.7674C94.862 54.4801 94.8165 54.1699 94.8165 53.8482C94.8165 53.5265 94.8734 53.2278 94.9873 52.9406C95.0101 52.8946 95.0215 52.8487 95.0442 52.8142L94.6684 52.9176C94.5546 53.2163 94.4862 53.538 94.4862 53.8712C94.4862 54.2389 94.5546 54.595 94.6912 54.9167C94.8279 55.2384 95.0215 55.5256 95.2606 55.7669C95.4997 56.0082 95.7844 56.2035 96.1033 56.3414C96.4221 56.4792 96.7638 56.5482 97.1282 56.5482C97.4926 56.5482 97.8342 56.4792 98.1531 56.3414C98.4719 56.2035 98.7566 56.0082 98.9958 55.7669C99.2349 55.5256 99.4285 55.2384 99.5652 54.9167C99.7018 54.595 99.7701 54.2389 99.7701 53.8712C99.7701 53.5035 99.7018 53.1474 99.5652 52.8257C99.4285 52.504 99.2349 52.2168 98.9958 51.9755C98.9388 51.918 98.8819 51.8606 98.8136 51.8146L98.4605 51.9065C98.6086 51.987 98.7225 52.0789 98.825 52.1938Z" fill="white"/>
<path d="M28.8592 24.0224L15.4558 28.0436V55.9968H22.4251V44.7374H24.6115C31.2164 44.7374 38.3679 41.4745 38.3679 33.6618C38.3679 27.4462 34.1886 24.7348 28.8592 24.0224ZM24.6912 41.3366H22.4137V27.2279H24.5546C28.5631 27.2279 31.0228 29.5717 31.0228 34.2133C31.0342 38.3954 29.3033 41.3366 24.6912 41.3366Z" fill="white"/>
<path d="M49.4145 32.2365C42.9463 32.2365 38.2545 37.5675 38.2545 44.7367C38.2545 51.7681 43.3562 56.4557 49.4145 56.4557C54.7895 56.4557 58.4335 53.4225 58.798 48.9188C57.3859 50.3434 55.0172 51.2166 52.3753 51.2166C49.2778 51.2166 45.6338 49.5162 44.5405 44.9665L58.798 40.6925C58.8435 40.4168 58.8435 40.233 58.8435 40.0491C58.8435 36.4186 55.7916 32.2365 49.4145 32.2365ZM52.4664 41.3359H44.1761C44.3583 37.4756 46.4081 35.4075 48.7312 35.4075C50.8266 35.4075 52.6486 36.9241 52.4664 41.3359Z" fill="white"/>
<path d="M72.0525 32.2365C65.5843 32.2365 60.8926 37.5675 60.8926 44.7367C60.8926 51.7681 65.9943 56.4557 72.0525 56.4557C77.4275 56.4557 81.0716 53.4225 81.436 48.9188C80.024 50.3434 77.6553 51.2166 75.0134 51.2166C71.9159 51.2166 68.2718 49.5162 67.1786 44.9665L81.436 40.6925C81.4816 40.4168 81.4816 40.233 81.4816 40.0491C81.4816 36.4186 78.4297 32.2365 72.0525 32.2365ZM75.1045 41.3359H66.8142C66.9964 37.4756 69.0462 35.4075 71.3693 35.4075C73.4646 35.4075 75.2867 36.9241 75.1045 41.3359Z" fill="white"/>
<path d="M85.0802 56.0082H91.4118V22.9998L85.0802 24.6887V56.0082Z" fill="white"/>
<defs>
<filter id="filter0_d" x="82.2169" y="11.102" width="115.328" height="84.3983" filterUnits="userSpaceOnUse" color-interpolation-filters="sRGB">
<feFlood flood-opacity="0" result="BackgroundImageFix"/>
<feColorMatrix in="SourceAlpha" type="matrix" values="0 0 0 0 0 0 0 0 0 0 0 0 0 0 0 0 0 0 127 0"/>
<feOffset dy="2"/>
<feGaussianBlur stdDeviation="5"/>
<feColorMatrix type="matrix" values="0 0 0 0 0 0 0 0 0 0 0 0 0 0 0 0 0 0 0.15 0"/>
<feBlend mode="normal" in2="BackgroundImageFix" result="effect1_dropShadow"/>
<feBlend mode="normal" in="SourceGraphic" in2="effect1_dropShadow" result="shape"/>
</filter>
<filter id="filter1_d" x="83.9341" y="2.31018" width="109.453" height="89.005" filterUnits="userSpaceOnUse" color-interpolation-filters="sRGB">
<feFlood flood-opacity="0" result="BackgroundImageFix"/>
<feColorMatrix in="SourceAlpha" type="matrix" values="0 0 0 0 0 0 0 0 0 0 0 0 0 0 0 0 0 0 127 0"/>
<feOffset dy="4"/>
<feGaussianBlur stdDeviation="3.5"/>
<feColorMatrix type="matrix" values="0 0 0 0 0 0 0 0 0 0 0 0 0 0 0 0 0 0 0.15 0"/>
<feBlend mode="normal" in2="BackgroundImageFix" result="effect1_dropShadow"/>
<feBlend mode="normal" in="SourceGraphic" in2="effect1_dropShadow" result="shape"/>
</filter>
<filter id="filter2_d" x="70.1784" y="0" width="110.373" height="91.4581" filterUnits="userSpaceOnUse" color-interpolation-filters="sRGB">
<feFlood flood-opacity="0" result="BackgroundImageFix"/>
<feColorMatrix in="SourceAlpha" type="matrix" values="0 0 0 0 0 0 0 0 0 0 0 0 0 0 0 0 0 0 127 0"/>
<feOffset dy="4"/>
<feGaussianBlur stdDeviation="2"/>
<feColorMatrix type="matrix" values="0 0 0 0 0 0 0 0 0 0 0 0 0 0 0 0 0 0 0.15 0"/>
<feBlend mode="normal" in2="BackgroundImageFix" result="effect1_dropShadow"/>
<feBlend mode="normal" in="SourceGraphic" in2="effect1_dropShadow" result="shape"/>
</filter>
</defs>
</svg>
